<?xml version="1.0" encoding="utf-8"?>
<!-- Generator: Adobe Illustrator 26.0.0, SVG Export Plug-In . SVG Version: 6.00 Build 0)  -->
<svg version="1.1" id="Layer_1" xmlns="http://www.w3.org/2000/svg" xmlns:xlink="http://www.w3.org/1999/xlink" x="0px" y="0px"
	 viewBox="0 0 24 24" style="enable-background:new 0 0 24 24;" xml:space="preserve">
<style type="text/css">
	.st0{fill:#16192E;}
	.st1{fill:#FFFFFF;}
</style>
<path class="st0" d="M6.3,0.6h11.4c3.2,0,5.7,2.5,5.7,5.7v11.4c0,3.2-2.5,5.7-5.7,5.7H6.3c-3.2,0-5.7-2.5-5.7-5.7V6.3
	C0.6,3.1,3.1,0.6,6.3,0.6z"/>
<path id="_x31_" class="st1" d="M9,6h6c1.7,0,3,1.3,3,3v6c0,1.7-1.3,3-3,3H9c-1.7,0-3-1.3-3-3V9C6,7.3,7.3,6,9,6z"/>
<path class="st1" d="M17.7,0.6H6.3c-3.2,0-5.7,2.5-5.7,5.7v11.4c0,3.2,2.5,5.7,5.7,5.7h11.4c3.2,0,5.7-2.5,5.7-5.7V6.3
	C23.4,3.1,20.9,0.6,17.7,0.6z M21.1,17.7c0,1.9-1.5,3.4-3.4,3.4H6.3c-1.9,0-3.4-1.5-3.4-3.4V6.3c0-1.9,1.5-3.4,3.4-3.4h11.4
	c1.9,0,3.4,1.5,3.4,3.4V17.7z"/>
</svg>
