<?xml version="1.0" encoding="utf-8"?>
<!-- Generator: Adobe Illustrator 26.0.0, SVG Export Plug-In . SVG Version: 6.00 Build 0)  -->
<svg version="1.1" id="Capa_1" xmlns="http://www.w3.org/2000/svg" xmlns:xlink="http://www.w3.org/1999/xlink" x="0px" y="0px"
	 viewBox="0 0 40 40" style="enable-background:new 0 0 40 40;" xml:space="preserve">
<style type="text/css">
	.st0{fill:#737AAE;}
</style>
<path class="st0" d="M7.5,7.5h3.1h0.1c0.8,0,1.6,0.4,2.1,1l7.1,7.1l7.2-7.1c0.8-0.7,1.4-1,2.1-1h3.1v3.1c0,0.9-0.1,1.7-0.8,2.3
	l-7.1,7.1l7,7c0.6,0.6,0.9,1.4,0.9,2.2v3.1h-3.1c-0.8,0-1.7-0.3-2.2-0.9L20,24.5l-7.1,7.1c-0.6,0.6-1.4,0.9-2.2,0.9H7.5v-3.1
	c0-0.8,0.3-1.7,0.9-2.2l7.1-7L8.4,13c-0.7-0.6-1-1.5-0.9-2.3V7.5z"/>
</svg>
