<?xml version="1.0" encoding="utf-8"?>
<!-- Generator: Adobe Illustrator 26.0.0, SVG Export Plug-In . SVG Version: 6.00 Build 0)  -->
<svg version="1.1" id="Capa_1" xmlns="http://www.w3.org/2000/svg" xmlns:xlink="http://www.w3.org/1999/xlink" x="0px" y="0px"
	 viewBox="0 0 24 24" style="enable-background:new 0 0 24 24;" xml:space="preserve">
<style type="text/css">
	.st0{display:none;fill:#FF2D7C;}
	.st1{fill:#FEFEFE;}
</style>
<path class="st0" d="M21.8,4.1H5c-0.8,0-1.2,1-0.6,1.5l6.7,6.7v7.5c0,0.3,0.2,0.5,0.4,0.7l2.9,2.1c0.5,0.4,1.3,0,1.3-0.7v-9.6
	l6.7-6.6C23,5.1,22.6,4.1,21.8,4.1z"/>
<path class="st1" d="M20.4,3H3.6C2.8,3,2.4,3.9,3,4.5l6.7,6.7v7.5c0,0.3,0.2,0.5,0.4,0.7l2.9,2.1c0.5,0.4,1.3,0,1.3-0.7v-9.6L21,4.4
	C21.6,4,21.2,3,20.4,3z"/>
</svg>
