<?xml version="1.0" encoding="utf-8"?>
<!-- Generator: Adobe Illustrator 26.0.0, SVG Export Plug-In . SVG Version: 6.00 Build 0)  -->
<svg version="1.1" id="Capa_1" xmlns="http://www.w3.org/2000/svg" xmlns:xlink="http://www.w3.org/1999/xlink" x="0px" y="0px"
	 viewBox="0 0 16 16" style="enable-background:new 0 0 16 16;" xml:space="preserve">
<style type="text/css">
	.st0{fill:#62677A;}
</style>
<path class="st0" d="M14,2c-0.3,0-0.5,0.1-0.7,0.3l-1,1C11,2.4,9.5,2,8,2C4.4,2,1.2,4.5,0.3,8c0.5,1.7,1.5,3.3,2.9,4.4l-0.9,0.9
	c-0.4,0.4-0.4,1,0,1.4c0.4,0.4,1,0.4,1.4,0c0,0,0,0,0,0l11-11c0.4-0.4,0.4-1,0-1.4C14.5,2.1,14.3,2,14,2z M8,4c1,0,1.9,0.3,2.6,1
	L9.2,6.4C8.8,6.1,8.4,6,8,6C6.9,6,6,6.9,6,8c0,0.4,0.1,0.8,0.4,1.2L5,10.6C4.3,9.9,4,9,4,8C4,5.8,5.8,4,8,4z M15,6.2l-3.3,3.3
	c-0.4,1-1.2,1.7-2.1,2.1L7.3,14c0.2,0,0.5,0,0.7,0c3.6,0,6.8-2.5,7.7-6C15.6,7.4,15.3,6.8,15,6.2L15,6.2z M7.5,7C7.8,7,8,7.2,8,7.5
	C8,7.8,7.8,8,7.5,8S7,7.8,7,7.5S7.2,7,7.5,7z"/>
</svg>
