<?xml version="1.0" encoding="utf-8"?>
<!-- Generator: Adobe Illustrator 21.0.0, SVG Export Plug-In . SVG Version: 6.00 Build 0)  -->
<svg version="1.1" id="Layer_general" xmlns="http://www.w3.org/2000/svg" xmlns:xlink="http://www.w3.org/1999/xlink" x="0px"
	 y="0px" viewBox="0 0 16 16" style="enable-background:new 0 0 16 16;" xml:space="preserve">
<style type="text/css">
	.st0{fill:#FFFFFF;}
	.st1{fill:#0057AE;stroke:#6193CF;stroke-width:0.25;}
</style>
<path id="White" class="st0" d="M11.8,5.7c0,0.3,0,0.6-0.1,0.8c-0.1,0.2-0.2,0.5-0.3,0.7c-0.1,0.2-0.3,0.4-0.5,0.5
	c-0.2,0.2-0.4,0.3-0.6,0.4c-0.2,0.1-0.4,0.3-0.6,0.4C9.6,8.7,9.4,8.8,9.2,9C9.1,9.1,9,9.3,8.9,9.5c-0.1,0.2-0.1,0.4-0.2,0.6h-2
	C6.8,9.7,6.9,9.3,7,9c0.2-0.3,0.3-0.6,0.6-0.8C7.8,8,8.1,7.8,8.3,7.7C8.6,7.5,8.8,7.3,9,7.1C9.2,7,9.4,6.8,9.5,6.5
	c0.1-0.2,0.2-0.5,0.2-0.8c0-0.4-0.1-0.8-0.4-1C9,4.5,8.6,4.4,8.1,4.4c-0.2,0-0.5,0-0.7,0.1C7.2,4.6,7,4.7,6.9,4.8
	C6.7,5,6.6,5.1,6.5,5.3C6.4,5.5,6.3,5.7,6.3,6L4.2,5.9C4.3,5.4,4.4,5,4.6,4.7c0.2-0.4,0.4-0.7,0.8-1S6,3.2,6.5,3
	c0.5-0.2,1-0.2,1.6-0.2c0.6,0,1.1,0.1,1.6,0.2c0.5,0.1,0.8,0.3,1.2,0.6c0.3,0.3,0.6,0.6,0.7,0.9C11.7,4.8,11.8,5.2,11.8,5.7
	L11.8,5.7z M6.7,13.2v-2h2.1v2H6.7z"/>
<path id="Question" class="st1" d="M8,1.1C4.2,1.1,1.1,4.2,1.1,8c0,3.8,3.1,6.9,6.9,6.9s6.9-3.1,6.9-6.9C14.9,4.2,11.8,1.1,8,1.1z
	 M8.1,2.8c0.6,0,1.1,0.1,1.6,0.2c0.5,0.1,0.8,0.3,1.2,0.6c0.3,0.3,0.6,0.6,0.8,0.9c0.2,0.4,0.2,0.8,0.3,1.2c0,0.3,0,0.6-0.1,0.8
	c-0.1,0.2-0.2,0.5-0.3,0.7c-0.1,0.2-0.3,0.4-0.5,0.5c-0.2,0.2-0.4,0.3-0.6,0.4c-0.2,0.1-0.3,0.3-0.5,0.4C9.6,8.7,9.4,8.9,9.3,9
	C9.1,9.1,9,9.3,8.9,9.5c-0.1,0.2-0.1,0.4-0.2,0.6H6.8c0-0.4,0.1-0.8,0.2-1.1c0.2-0.3,0.3-0.6,0.6-0.8c0.2-0.2,0.5-0.4,0.7-0.6
	C8.6,7.5,8.8,7.3,9,7.2C9.2,7,9.4,6.8,9.5,6.6c0.1-0.2,0.2-0.5,0.2-0.8c0-0.4-0.1-0.8-0.4-1S8.6,4.4,8.1,4.4c-0.2,0-0.5,0-0.7,0.1
	C7.2,4.6,7,4.7,6.9,4.8C6.7,5,6.6,5.1,6.5,5.3C6.4,5.5,6.3,5.8,6.3,6L4.2,5.9c0.1-0.4,0.2-0.8,0.4-1.2C4.7,4.3,5,4,5.3,3.7
	S6,3.2,6.5,3C6.9,2.8,7.5,2.8,8.1,2.8L8.1,2.8z M6.7,11.3h2.1v2H6.7V11.3z"/>
</svg>
