<?xml version="1.0" encoding="utf-8"?>
<!-- Generator: Adobe Illustrator 26.0.0, SVG Export Plug-In . SVG Version: 6.00 Build 0)  -->
<svg version="1.1" id="Capa_1" xmlns="http://www.w3.org/2000/svg" xmlns:xlink="http://www.w3.org/1999/xlink" x="0px" y="0px"
	 viewBox="0 0 16 16" style="enable-background:new 0 0 16 16;" xml:space="preserve">
<style type="text/css">
	.st0{fill:#FF4C4C;}
</style>
<g>
	<path class="st0" d="M7,1C6.7,1,6.4,1.1,6.2,1.4L3,5H2C0.9,5,0,5.8,0,7v2c0,1.1,0.9,2,2,2h1l3.2,3.6C6.4,14.9,6.7,15,7,15V1z"/>
	<path class="st0" d="M10,5C9.7,5,9.5,5.1,9.3,5.3c-0.4,0.4-0.4,1,0,1.4L10.6,8L9.3,9.3c-0.4,0.4-0.4,1,0,1.4s1,0.4,1.4,0L12,9.4
		l1.3,1.3c0.4,0.4,1,0.4,1.4,0s0.4-1,0-1.4L13.4,8l1.3-1.3c0.4-0.4,0.4-1,0-1.4C14.5,5.1,14.3,5,14,5s-0.5,0.1-0.7,0.3L12,6.6
		l-1.3-1.3C10.5,5.1,10.3,5,10,5z"/>
</g>
</svg>
