<?xml version="1.0" encoding="utf-8"?>
<!-- Generator: Adobe Illustrator 26.0.0, SVG Export Plug-In . SVG Version: 6.00 Build 0)  -->
<svg version="1.1" id="Capa_1" xmlns="http://www.w3.org/2000/svg" xmlns:xlink="http://www.w3.org/1999/xlink" x="0px" y="0px"
	 viewBox="0 0 16 16" style="enable-background:new 0 0 16 16;" xml:space="preserve">
<style type="text/css">
	.st0{fill:#62677A;}
</style>
<path class="st0" d="M8,0C5.8,0,4,1.8,4,4v1c0,0.6,0.4,1,1,1s1-0.4,1-1V4c0-1.1,0.9-2,2-2s2,0.9,2,2v4H4c-1.1,0-2,0.9-2,2v5
	c0,0.6,0.4,1,1,1h10c0.6,0,1-0.4,1-1v-5c0-1.1-0.9-2-2-2V4C12,1.8,10.2,0,8,0z"/>
</svg>
